<svg xmlns="http://www.w3.org/2000/svg" viewBox="0 0 23.007 24">
  <defs>
    <style>
      .cls-1 {
        fill: #fff;
      }
    </style>
  </defs>
  <path id="_5" data-name="5" class="cls-1" d="M1387.58,12225a4.74,4.74,0,0,0-4.778,4.7c0,2.6,4.778,8.822,4.778,8.822s4.777-6.225,4.777-8.822A4.74,4.74,0,0,0,1387.58,12225Zm0,6.761a2.352,2.352,0,1,1,2.388-2.352A2.371,2.371,0,0,1,1387.58,12231.761Zm5.923-5.409c-.265,0-.526.013-.786.029a5.976,5.976,0,0,1,.773,1.662h.013c1.578,0,3.291,2.145,4.124,5.407H1392.5c-.292.567-.616,1.138-.95,1.69h6.407a18.042,18.042,0,0,1-.052,5.409h-8.81c-.081-.492-.14-1-.179-1.531l-.244.321-1.1,1.428-.233-.3.011.086h-3.2a9.435,9.435,0,0,1-.228-4.876c-.41-.653-.816-1.343-1.18-2.032a11.13,11.13,0,0,0-.754,4.035,11.533,11.533,0,0,0,22.031,4.563h.117v-.27a11.135,11.135,0,0,0,.859-4.294A11.415,11.415,0,0,0,1393.5,12226.352Zm4.006,2.538a9.783,9.783,0,0,1,4.786,4.56h-2.9A13.222,13.222,0,0,0,1397.51,12228.89Zm-12.623,13.35h2.8a12.959,12.959,0,0,0,1.807,4.222A9.787,9.787,0,0,1,1384.887,12242.239Zm8.616,5.069c-1.523,0-3.171-2-4.033-5.069h8.065C1396.674,12245.312,1395.026,12247.309,1393.5,12247.309Zm4.006-.848a12.962,12.962,0,0,0,1.808-4.222h2.8A9.789,9.789,0,0,1,1397.51,12246.461Zm5.335-5.912h-3.2a20.017,20.017,0,0,0,.045-5.409h3.249a9.488,9.488,0,0,1-.1,5.409Z" transform="translate(-1382 -12225)"/>
</svg>
