<svg xmlns="http://www.w3.org/2000/svg" viewBox="0 0 14.992 24.999">
  <defs>
    <style>
      .cls-1 {
        fill: #fff;
      }
    </style>
  </defs>
  <path id="_23" data-name="23" class="cls-1" d="M521.6,12225H509.388a1.373,1.373,0,0,0-1.388,1.358v22.282a1.374,1.374,0,0,0,1.388,1.358H521.6a1.374,1.374,0,0,0,1.388-1.358v-22.282A1.373,1.373,0,0,0,521.6,12225Zm-7.3,1.31h2.392a.279.279,0,1,1,0,.558H514.3a.279.279,0,1,1,0-.558Zm1.2,22.687a.78.78,0,1,1,.8-.78A.788.788,0,0,1,515.5,12249Zm5.968-3.041a.668.668,0,0,1-.674.661H510.2a.669.669,0,0,1-.675-.661v-17.578a.666.666,0,0,1,.675-.659H520.79a.666.666,0,0,1,.674.659Z" transform="translate(-508 -12225)"/>
</svg>
