<svg xmlns="http://www.w3.org/2000/svg" width="35" height="34" viewBox="0 0 35 34">
  <g id="Vector_Smart_Object" data-name="Vector Smart Object" transform="translate(-229.036 -119.295)">
    <path id="Path_3" data-name="Path 3" d="M246.535,153.295a17.007,17.007,0,1,0-17.5-17,17.255,17.255,0,0,0,17.5,17" fill="#3569b1"/>
    <path id="Path_4" data-name="Path 4" d="M242.314,133.416h1.809v-1.707a4.454,4.454,0,0,1,.583-2.635,3.252,3.252,0,0,1,2.808-1.279,11.7,11.7,0,0,1,3.243.316l-.452,2.6a6.3,6.3,0,0,0-1.458-.211c-.7,0-1.333.245-1.333.928v1.985H250.4l-.2,2.544h-2.684v8.835h-3.391V135.96h-1.809Z" fill="#fff"/>
  </g>
</svg>
