<?xml version="1.0" ?><svg enable-background="new 0 0 512 512" id="Layer_1" version="1.1" viewBox="0 0 512 512" xml:space="preserve" xmlns="http://www.w3.org/2000/svg" xmlns:xlink="http://www.w3.org/1999/xlink"><g><g><linearGradient gradientUnits="userSpaceOnUse" id="SVGID_1_" x1="-0.0000027" x2="512" y1="256" y2="256"><stop offset="0" style="stop-color:#F35CB5"/><stop offset="1" style="stop-color:#EC008C"/></linearGradient><circle cx="256" cy="256" fill="url(#SVGID_1_)" r="256"/><linearGradient gradientUnits="userSpaceOnUse" id="SVGID_2_" x1="42.6666641" x2="469.3333435" y1="256.0005188" y2="256.0005188"><stop offset="0" style="stop-color:#EC008C"/><stop offset="1" style="stop-color:#F35CB5"/></linearGradient><path d="M256,469.3338623c-117.6315155,0-213.3333435-95.7023926-213.3333435-213.3333435    c0-117.6314545,95.7018204-213.333313,213.3333435-213.333313c117.6356812,0,213.3333435,95.7018661,213.3333435,213.333313    C469.3333435,373.6314697,373.6356812,469.3338623,256,469.3338623z" fill="url(#SVGID_2_)"/></g><g><path d="M341.373291,210.7317352v40.2650604c0,22.8890686-9.4666748,44.7376099-25.9690857,59.9413452    c-15.8581238,14.6080017-36.3935852,21.7365417-57.7978516,19.9199829    c-39.8010712-3.2661133-70.9802704-37.1402588-70.9802704-77.1125183v-43.0138702h-9.9989319v43.0138702    c0,45.1381226,35.211731,83.3866577,80.1589508,87.0821228c0.7418518,0.0613403,1.4767761,0.0490723,2.2165527,0.0906677V373.9888    h-45.5184326v9.9994812h101.0362549V373.9888h-45.5189209v-33.0922546    c19.7306519-1.1280212,38.2864075-8.8885498,53.1791992-22.6058655    c18.5530701-17.0885315,29.1919861-41.6170654,29.1919861-67.2938843v-40.2650604H341.373291z" opacity="0.3"/><path d="M264.0020752,305.4682617c28.5648193,0,51.7221375-23.1557312,51.7221375-51.7226563v-58.0128021    c0-28.5653381-23.1573181-51.7216034-51.7221375-51.7216034c-28.5653229,0-51.7226563,23.1562653-51.7226563,51.7216034v2.7391968    h28.1600037v9.9994659h-28.1600037v13.8410645h28.1600037v9.9994659h-28.1600037v21.433609    C212.2794189,282.3125305,235.4367523,305.4682617,264.0020752,305.4682617z" opacity="0.3"/></g><g><path d="M333.373291,202.7317352v40.2650604c0,22.8890686-9.4666748,44.7376099-25.9690857,59.9413452    c-15.8581238,14.6080017-36.3935852,21.7365417-57.7978516,19.9199829    c-39.8010712-3.2661133-70.9802704-37.1402588-70.9802704-77.1125183v-43.0138702h-9.9989319v43.0138702    c0,45.1381226,35.211731,83.3866577,80.1589355,87.0821228c0.7418671,0.0613403,1.4768066,0.0490723,2.2165833,0.0906677V365.9888    h-45.5184479v9.9994812h101.0362549V365.9888h-45.5189209v-33.0922546    c19.7306519-1.1280212,38.2864075-8.8885498,53.1791992-22.6058655    c18.5530701-17.0885315,29.1919861-41.6170654,29.1919861-67.2938843v-40.2650604H333.373291z" fill="#FFFFFF"/><path d="M256.0020752,297.4682617c28.5648193,0,51.7221375-23.1557312,51.7221375-51.7226563v-58.0128021    c0-28.5653381-23.1573181-51.7216034-51.7221375-51.7216034c-28.5653229,0-51.7226563,23.1562653-51.7226563,51.7216034v2.7391968    h28.1600037v9.9994659h-28.1600037v13.8410645h28.1600037v9.9994659h-28.1600037v21.433609    C204.2794189,274.3125305,227.4367523,297.4682617,256.0020752,297.4682617z" fill="#FFFFFF"/></g></g></svg>