<?xml version="1.0" ?><svg enable-background="new 0 0 512 512" id="Layer_1" version="1.1" viewBox="0 0 512 512" xml:space="preserve" xmlns="http://www.w3.org/2000/svg" xmlns:xlink="http://www.w3.org/1999/xlink"><g><g><linearGradient gradientUnits="userSpaceOnUse" id="SVGID_1_" x1="0.0000038" x2="512" y1="256" y2="256"><stop offset="0" style="stop-color:#33B49D"/><stop offset="1" style="stop-color:#00A185"/></linearGradient><circle cx="256" cy="256" fill="url(#SVGID_1_)" r="256"/><linearGradient gradientUnits="userSpaceOnUse" id="SVGID_2_" x1="42.6666679" x2="469.3333435" y1="256.0005188" y2="256.0005188"><stop offset="0" style="stop-color:#00A185"/><stop offset="1" style="stop-color:#33B49D"/></linearGradient><path d="M256,469.3338623c-117.6309357,0-213.3333282-95.7018738-213.3333282-213.3333435    S138.3690643,42.6671982,256,42.6671982c117.636261,0,213.3333435,95.7018661,213.3333435,213.333313    S373.636261,469.3338623,256,469.3338623z" fill="url(#SVGID_2_)"/></g><path d="M384,248.4885406h-12.8730774c-6.4926758-19.2992096-24.7093201-33.2384033-46.1813354-33.2384033   c-21.9253235,0-40.5365295,14.5749359-46.6304016,34.566925c-3.8495789-2.5418549-8.7829285-4.1167908-14.3173218-4.1167908   c-5.5354614,0-10.470932,1.5754547-14.3210602,4.1194611c-6.0938721-19.9930725-24.7050629-34.5695953-46.6309357-34.5695953   c-21.4720001,0-39.6885376,13.9391937-46.1818695,33.2384033H144v9.9999847h10.6289215   c-0.2049255,1.8112183-0.3334503,3.6453552-0.3334503,5.5114746c0,26.8997192,21.8501282,48.7498779,48.7503967,48.7498779   c26.8495941,0,48.7498627-21.8501587,48.7498627-48.7498779c0-0.2799988-0.037323-0.550415-0.0421295-0.8287964h0.0293274   c0-3.5328064,5.0176086-7.470932,12.2149353-7.470932c7.2000122,0,12.2144165,3.9381256,12.2144165,7.470932h0.0255737   c-0.0047913,0.2783813-0.0421143,0.5487976-0.0421143,0.8287964c0,26.8997192,21.8998413,48.7498779,48.7498474,48.7498779   c26.9002686,0,48.75-21.8501587,48.75-48.7498779c0-1.8661194-0.1286621-3.7002563-0.3334656-5.5114746H384V248.4885406z" opacity="0.3"/><path d="M376,240.4885406h-12.8730774c-6.4926758-19.2992096-24.7093201-33.2384033-46.1813354-33.2384033   c-21.9253235,0-40.5365295,14.5749359-46.6304016,34.566925c-3.8495789-2.5418701-8.7829285-4.1167908-14.3173218-4.1167908   c-5.5354614,0-10.470932,1.5754547-14.3210602,4.1194611c-6.0938721-19.9930725-24.7050629-34.5695953-46.6309357-34.5695953   c-21.4720001,0-39.6885376,13.9391937-46.1818695,33.2384033H136v10h10.6289215   c-0.2049255,1.8111877-0.3334503,3.6453247-0.3334503,5.5114594c0,26.8997192,21.8501282,48.7498779,48.7503967,48.7498779   c26.8495941,0,48.7498627-21.8501587,48.7498627-48.7498779c0-0.2799988-0.037323-0.5503998-0.0421295-0.8287964h0.0293274   c0-3.5328064,5.0176086-7.470932,12.2149353-7.470932c7.2000122,0,12.2144165,3.9381256,12.2144165,7.470932h0.0255737   c-0.0047913,0.2783966-0.0421143,0.5487976-0.0421143,0.8287964c0,26.8997192,21.8998413,48.7498779,48.7498474,48.7498779   c26.9002686,0,48.75-21.8501587,48.75-48.7498779c0-1.8661346-0.1286621-3.7002716-0.3334656-5.5114594H376V240.4885406z" fill="#FFFFFF"/></g></svg>