<?xml version="1.0" ?><svg enable-background="new 0 0 512 512" id="Layer_1" version="1.1" viewBox="0 0 512 512" xml:space="preserve" xmlns="http://www.w3.org/2000/svg" xmlns:xlink="http://www.w3.org/1999/xlink"><g><g><linearGradient gradientUnits="userSpaceOnUse" id="SVGID_1_" x1="-0.0000027" x2="512" y1="256" y2="256"><stop offset="0" style="stop-color:#00AEEE"/><stop offset="1" style="stop-color:#0095DA"/></linearGradient><circle cx="256" cy="256" fill="url(#SVGID_1_)" r="256"/><linearGradient gradientUnits="userSpaceOnUse" id="SVGID_2_" x1="42.6666641" x2="469.3333435" y1="256.0005188" y2="256.0005188"><stop offset="0" style="stop-color:#0095DA"/><stop offset="1" style="stop-color:#00AEEE"/></linearGradient><path d="M256,469.3338623c-117.631012,0-213.3333435-95.7018738-213.3333435-213.3333435    c0-117.6309204,95.7023239-213.333313,213.3333435-213.333313c117.6362,0,213.3333435,95.7024002,213.3333435,213.333313    C469.3333435,373.6319885,373.6362,469.3338623,256,469.3338623z" fill="url(#SVGID_2_)"/></g><polygon id="XMLID_49_" opacity="0.3" points="264,149.8730621 294.8953857,233.5253296 384,237.058136 313.9897766,292.2911987    338.1647339,378.1269226 264,328.6106567 189.8361969,378.1269226 214.0111237,292.2911987 144,237.058136    233.1049957,233.5253296  "/><polygon fill="#FFFFFF" id="XMLID_634_" points="256,141.8730621 286.8953857,225.5253296 376,229.058136 305.9897766,284.2911987    330.1647339,370.1269226 256,320.6106567 181.8361969,370.1269226 206.0111237,284.2911987 136,229.058136    225.1049957,225.5253296  "/></g></svg>