<?xml version="1.0" ?><svg enable-background="new 0 0 512 512" id="Layer_1" version="1.1" viewBox="0 0 512 512" xml:space="preserve" xmlns="http://www.w3.org/2000/svg" xmlns:xlink="http://www.w3.org/1999/xlink"><g><g><linearGradient gradientUnits="userSpaceOnUse" id="SVGID_1_" x1="0.0000083" x2="512" y1="256" y2="256"><stop offset="0" style="stop-color:#FFCA05"/><stop offset="1" style="stop-color:#FAAC18"/></linearGradient><circle cx="256" cy="256" fill="url(#SVGID_1_)" r="256"/><linearGradient gradientUnits="userSpaceOnUse" id="SVGID_2_" x1="42.6666756" x2="469.333313" y1="256.0005188" y2="256.0005188"><stop offset="0" style="stop-color:#FAAC18"/><stop offset="1" style="stop-color:#FFCA05"/></linearGradient><path d="M256,469.3338623c-117.6309204,0-213.3333282-95.7023926-213.3333282-213.3333435    c0-117.6314545,95.7024078-213.333313,213.3333282-213.333313c117.636261,0,213.333313,95.7018661,213.333313,213.333313    C469.333313,373.6314697,373.636261,469.3338623,256,469.3338623z" fill="url(#SVGID_2_)"/></g><g><rect height="10" opacity="0.3" width="239.9989166" x="144.0005493" y="259.0085449"/><path d="M263.9914551,226.9498596c18.6495972,0,33.799469-15.1498566,33.799469-33.7994537    c0-18.6501465-15.1498718-33.8000031-33.799469-33.8000031c-18.6501312,0-33.7999878,15.1498566-33.7999878,33.8000031    C230.1914673,211.8000031,245.3413239,226.9498596,263.9914551,226.9498596z" opacity="0.3"/><path d="M263.9914551,301.0495911c-18.6501312,0-33.7999878,15.2000122-33.7999878,33.8000183    c0,18.6495972,15.1498566,33.7999878,33.7999878,33.7999878c18.6495972,0,33.799469-15.1503906,33.799469-33.7999878    C297.7909241,316.2496033,282.6410522,301.0495911,263.9914551,301.0495911z" opacity="0.3"/></g><g><rect fill="#FFFFFF" height="10" width="239.9989166" x="136.0005493" y="251.0085297"/><path d="M255.9914551,218.9498596c18.6495972,0,33.799469-15.1498566,33.799469-33.7994537    c0-18.6501465-15.1498718-33.8000031-33.799469-33.8000031c-18.6501312,0-33.7999878,15.1498566-33.7999878,33.8000031    C222.1914673,203.8000031,237.3413239,218.9498596,255.9914551,218.9498596z" fill="#FFFFFF"/><path d="M255.9914551,293.0495911c-18.6501312,0-33.7999878,15.2000122-33.7999878,33.8000183    c0,18.6495972,15.1498566,33.7999878,33.7999878,33.7999878c18.6495972,0,33.799469-15.1503906,33.799469-33.7999878    C289.7909241,308.2496033,274.6410522,293.0495911,255.9914551,293.0495911z" fill="#FFFFFF"/></g></g></svg>