<?xml version="1.0" ?><svg enable-background="new 0 0 512 512" id="Layer_1" version="1.1" viewBox="0 0 512 512" xml:space="preserve" xmlns="http://www.w3.org/2000/svg" xmlns:xlink="http://www.w3.org/1999/xlink"><g><g><linearGradient gradientUnits="userSpaceOnUse" id="SVGID_1_" x1="-0.0000027" x2="512" y1="256" y2="256"><stop offset="0" style="stop-color:#B49A85"/><stop offset="0.0650802" style="stop-color:#B0957F"/><stop offset="0.2856463" style="stop-color:#A88A71"/><stop offset="0.5538635" style="stop-color:#A38369"/><stop offset="1" style="stop-color:#A18166"/></linearGradient><circle cx="256" cy="256" fill="url(#SVGID_1_)" r="256"/><linearGradient gradientUnits="userSpaceOnUse" id="SVGID_2_" x1="42.6666641" x2="469.3333435" y1="256.0010681" y2="256.0010681"><stop offset="0" style="stop-color:#A18166"/><stop offset="0.4461364" style="stop-color:#A38369"/><stop offset="0.7143537" style="stop-color:#A88A71"/><stop offset="0.9349198" style="stop-color:#B0957F"/><stop offset="1" style="stop-color:#B49A85"/></linearGradient><path d="M256,469.3344116c-117.6315308,0-213.3333435-95.7024231-213.3333435-213.3333435    c0-117.6314697,95.7018051-213.3333435,213.3333435-213.3333435c117.6362,0,213.3333435,95.7018661,213.3333435,213.3333435    C469.3333435,373.6319885,373.6362,469.3344116,256,469.3344116z" fill="url(#SVGID_2_)"/></g><g><path d="M263.9844666,179.0906677c-30.9893341,0-56.1983948,25.211731-56.1983948,56.200531    s25.2090607,56.2010803,56.1983948,56.2010803c30.9888,0,56.2026672-25.2122803,56.2026672-56.2010803    S294.9732666,179.0906677,263.9844666,179.0906677z M263.988739,254.2757263c-10.4714661,0-18.9888-8.517334-18.9888-18.9845276    s8.517334-18.9839935,18.9888-18.9839935c10.4677429,0,18.9845276,8.5167999,18.9845276,18.9839935    S274.4564819,254.2757263,263.988739,254.2757263z" opacity="0.3"/><path d="M263.988739,225.907196c-5.1749268,0-9.3887939,4.20961-9.3887939,9.3840027    c0,5.174942,4.2138672,9.3845367,9.3887939,9.3845367c5.1754761,0,9.3845215-4.2095947,9.3845215-9.3845367    C273.3732605,230.116806,269.1642151,225.907196,263.988739,225.907196z" opacity="0.3"/><path d="M348.7919312,144H179.2079468c-10.6080017,0-19.2000122,8.5919952-19.2000122,19.1999969v201.5999908    c0,10.6080017,8.5920105,19.2000122,19.2000122,19.2000122h169.5839844c10.5599976,0,19.2000122-8.5920105,19.2000122-19.2000122    V163.1999969C367.9919434,152.5919952,359.3519287,144,348.7919312,144z M298.999939,348.9888h-70.0314636v-9.6000061h70.0314636    V348.9888z M263.9844666,301.0922546c-36.2810669,0-65.7984009-29.517334-65.7984009-65.8010559    c0-36.2832031,29.517334-65.8005371,65.7984009-65.8005371c36.2858582,0,65.8026733,29.517334,65.8026733,65.8005371    C329.7871399,271.5749207,300.2703247,301.0922546,263.9844666,301.0922546z" opacity="0.3"/></g><g><path d="M255.9844666,171.0906677c-30.9893341,0-56.1983948,25.211731-56.1983948,56.200531    s25.2090607,56.2010803,56.1983948,56.2010803c30.9888,0,56.2026672-25.2122803,56.2026672-56.2010803    S286.9732666,171.0906677,255.9844666,171.0906677z M255.988739,246.2757263c-10.4714661,0-18.9888-8.517334-18.9888-18.9845276    s8.517334-18.9839935,18.9888-18.9839935c10.4677429,0,18.9845276,8.5167999,18.9845276,18.9839935    S266.4564819,246.2757263,255.988739,246.2757263z" fill="#FFFFFF"/><path d="M255.988739,217.907196c-5.1749268,0-9.3887939,4.20961-9.3887939,9.3840027    c0,5.1749268,4.2138672,9.3845367,9.3887939,9.3845367c5.1754761,0,9.3845215-4.20961,9.3845215-9.3845367    C265.3732605,222.116806,261.1642151,217.907196,255.988739,217.907196z" fill="#FFFFFF"/><path d="M340.7919312,136H171.2079468c-10.6080017,0-19.2000122,8.5919952-19.2000122,19.1999969v201.5999908    c0,10.6080017,8.5920105,19.2000122,19.2000122,19.2000122h169.5839844c10.5599976,0,19.2000122-8.5920105,19.2000122-19.2000122    V155.1999969C359.9919434,144.5919952,351.3519287,136,340.7919312,136z M290.999939,340.9888h-70.0314636v-9.6000061h70.0314636    V340.9888z M255.9844666,293.0922546c-36.2810669,0-65.7983856-29.517334-65.7983856-65.8010559    c0-36.2832031,29.5173187-65.8005371,65.7983856-65.8005371c36.2858582,0,65.8026733,29.517334,65.8026733,65.8005371    C321.7871399,263.5749207,292.2703247,293.0922546,255.9844666,293.0922546z" fill="#FFFFFF"/></g></g></svg>