<?xml version="1.0" ?><svg style="enable-background:new 0 0 512 512;" version="1.1" viewBox="0 0 512 512" xml:space="preserve" xmlns="http://www.w3.org/2000/svg" xmlns:xlink="http://www.w3.org/1999/xlink"><style type="text/css">
	.st0{fill:#1E1E1E;}
	.st1{fill:#464646;stroke:#21759B;stroke-width:2;stroke-miterlimit:10;}
	.st2{fill:#FFFFFF;}
</style><g id="Edges"/><g id="Background_Bottom"><g><path class="st0" d="M492.3,443.1c0,34.2-27.7,61.9-61.9,61.9H80.7c-34.2,0-61.9-27.7-61.9-61.9V93.4c0-34.2,27.7-61.9,61.9-61.9    h349.7c34.2,0,61.9,27.7,61.9,61.9V443.1z"/></g></g><g id="Background"><path class="st1" d="M492.3,418.4c0,34.2-27.7,61.9-61.9,61.9H80.7c-34.2,0-61.9-27.7-61.9-61.9V68.6c0-34.2,27.7-61.9,61.9-61.9   h349.7c34.2,0,61.9,27.7,61.9,61.9V418.4z"/></g><g id="Symbol"><path class="st2" d="M379.3,323.5c-6.7,15-10,21.7-18.6,35c-12.1,18.5-29.1,41.6-50.3,41.8   c-18.8,0.2-23.6-12.3-49.1-12.1c-25.5,0.1-30.8,12.4-49.6,12.2c-21.1-0.2-37.3-21-49.4-39.6c-33.8-51.8-37.4-112.6-16.5-145   c14.8-23,38.2-36.4,60.2-36.4c22.4,0,36.5,12.3,55,12.3c18,0,28.9-12.4,54.8-12.4c19.6,0,40.4,10.7,55.1,29.3   C322.6,235.3,330.4,304.9,379.3,323.5z M296.2,158.7c9.4-12.1,16.5-29.3,14-46.8c-15.4,1.1-33.4,10.9-43.8,23.7   c-9.6,11.6-17.4,28.9-14.4,45.7C268.8,181.8,286.2,171.7,296.2,158.7z" id="Apple"/></g></svg>