<?xml version="1.0" ?><svg viewBox="0 0 24 20.86" xmlns="http://www.w3.org/2000/svg"><title/><g data-name="Camada 2" id="Camada_2"><g data-name="Camada 1" id="Camada_1-2"><path d="M23.5,3.86H16.81V1.5A1.5,1.5,0,0,0,15.31,0H8.69a1.5,1.5,0,0,0-1.5,1.5V3.86H.5a.5.5,0,0,0-.5.5v6a2.5,2.5,0,0,0,1.5,2.29v7.71a.5.5,0,0,0,.5.5H22a.5.5,0,0,0,.5-.5V12.65A2.5,2.5,0,0,0,24,10.36v-6A.5.5,0,0,0,23.5,3.86ZM8.19,1.5a.5.5,0,0,1,.5-.5h6.63a.5.5,0,0,1,.5.5V3.86H8.19ZM21.5,19.86H2.5v-7H5v.6A1.5,1.5,0,0,0,6.48,15h1A1.5,1.5,0,0,0,9,13.46v-.6h6v.6a1.5,1.5,0,0,0,1.5,1.5h1a1.5,1.5,0,0,0,1.5-1.5v-.6H21.5ZM6,12.36H6v-.81H8v1.9a.5.5,0,0,1-.5.5h-1a.5.5,0,0,1-.5-.5Zm12,1.1a.5.5,0,0,1-.5.5h-1a.5.5,0,0,1-.5-.5v-1.9h2Zm5-3.1a1.5,1.5,0,0,1-1.5,1.5H19v-.81a.5.5,0,0,0-.5-.5h-3a.5.5,0,0,0-.5.5v.81H9v-.81a.5.5,0,0,0-.5-.5h-3a.5.5,0,0,0-.5.5v.81H2.5A1.5,1.5,0,0,1,1,10.36V4.86H23Z"/></g></g></svg>