<?xml version="1.0" ?><!DOCTYPE svg  PUBLIC '-//W3C//DTD SVG 1.1//EN'  'http://www.w3.org/Graphics/SVG/1.1/DTD/svg11.dtd'><svg enable-background="new 0 0 512 512" height="512px" id="Слой_1" version="1.1" viewBox="0 0 512 512" width="512px" xml:space="preserve" xmlns="http://www.w3.org/2000/svg" xmlns:xlink="http://www.w3.org/1999/xlink"><g id="pinterest"><g><path d="M511.994,256c0,141.387-114.607,255.996-256.004,255.996C114.613,511.988,0.006,397.387,0.006,256    c0-141.381,114.6-255.996,255.992-255.996C397.387,0.004,511.994,114.619,511.994,256z" fill="#EB1A24"/><path d="M294.889,137.594L186.492,165.5l-16.852,124.17l68.459,68.453l-38.257,68.553l83.804,83.805    c111.045-11.922,200.816-94.813,223.043-202.436L352.246,153.594l-16.718,29.953L294.889,137.594z" opacity="0.15"/></g><path d="M272.584,123.283c-82.521-0.016-124.17,59.357-124.17,108.873   c0,29.967,11.336,56.639,35.594,66.592c3.984,1.633,7.555,0.063,8.702-4.367c0.82-3.055,2.703-10.773,3.539-13.961   c1.164-4.391,0.695-5.922-2.492-9.742c-6.991-8.258-11.468-18.975-11.468-34.17c-0.008-44.055,32.835-83.492,85.529-83.5   c46.648,0.008,72.28,28.617,72.28,66.82c0,50.24-22.163,92.67-55.085,92.67c-18.156,0-31.75-15.078-27.414-33.578   c5.242-22.094,15.352-45.928,15.352-61.857c0-14.266-7.641-26.156-23.445-26.164c-18.57,0.008-33.499,19.305-33.507,45.117   c0,16.438,5.555,27.592,5.555,27.592s-19.008,80.813-22.344,94.969c-6.648,28.17,0.633,68.1,0.633,68.1   s26.812-30.516,34.351-57.912c2.125-7.758,12.219-47.906,12.219-47.906c6.023,11.563,23.648,21.719,42.43,21.719   c55.827,0,93.717-51.063,93.717-119.451C382.551,171.438,338.935,123.268,272.584,123.283z" fill="#F4F6F9" id="Pinterest_2_"/></g></svg>