<?xml version="1.0" encoding="iso-8859-1"?>
<!-- Generator: Adobe Illustrator 16.0.0, SVG Export Plug-In . SVG Version: 6.00 Build 0)  -->
<!DOCTYPE svg PUBLIC "-//W3C//DTD SVG 1.1//EN" "http://www.w3.org/Graphics/SVG/1.1/DTD/svg11.dtd">
<svg version="1.1" id="Capa_1" xmlns="http://www.w3.org/2000/svg" xmlns:xlink="http://www.w3.org/1999/xlink" x="0px" y="0px"
	 width="485.213px" height="485.212px" viewBox="0 0 485.213 485.212" style="enable-background:new 0 0 485.213 485.212;"
	 xml:space="preserve">
<g>
	<path d="M60.652,90.978h60.653v60.651H60.652V90.978z M90.979,181.955c-16.762,0-30.327,13.565-30.327,30.327
		s13.565,30.324,30.327,30.324s30.327-13.562,30.327-30.324S107.74,181.955,90.979,181.955z M424.562,288.094
		c0,58.609-47.534,106.143-106.139,106.143c-58.609,0-106.141-47.533-106.141-106.143c0-58.607,47.531-106.139,106.141-106.139
		C377.028,181.955,424.562,229.487,424.562,288.094z M394.236,288.094c0-41.812-34-75.812-75.812-75.812
		c-41.817,0-75.816,34-75.816,75.812c0,41.816,33.999,75.812,75.816,75.812C360.236,363.906,394.236,329.911,394.236,288.094z
		 M485.212,90.978v333.582c0,33.5-27.158,60.653-60.649,60.653H60.652c-33.493,0-60.651-27.153-60.651-60.653V90.978
		c0-33.493,27.158-60.651,60.651-60.651V0h60.653v30.327h303.257C458.054,30.327,485.212,57.484,485.212,90.978z M151.629,454.886
		V60.651H60.652c-16.701,0-30.324,13.625-30.324,30.327v333.582c0,16.736,13.623,30.327,30.324,30.327H151.629z M454.89,90.978
		c0-16.701-13.596-30.327-30.327-30.327H181.956v394.235h242.606c16.731,0,30.327-13.591,30.327-30.327V90.978z M394.236,90.978
		h-30.327c-16.76,0-30.322,13.565-30.322,30.327s13.562,30.324,30.322,30.324h30.327c16.759,0,30.326-13.562,30.326-30.324
		S410.995,90.978,394.236,90.978z"/>
</g>
<g>
</g>
<g>
</g>
<g>
</g>
<g>
</g>
<g>
</g>
<g>
</g>
<g>
</g>
<g>
</g>
<g>
</g>
<g>
</g>
<g>
</g>
<g>
</g>
<g>
</g>
<g>
</g>
<g>
</g>
</svg>
