<svg xmlns="http://www.w3.org/2000/svg" width="35" height="34" viewBox="0 0 35 34">
  <g id="Vector_Smart_Object" data-name="Vector Smart Object" transform="translate(-124.036 -119.295)">
    <path id="Path_1" data-name="Path 1" d="M141.536,153.295a17.007,17.007,0,1,0-17.5-17,17.255,17.255,0,0,0,17.5,17" fill="#60c3ee"/>
    <path id="Path_2" data-name="Path 2" d="M150.316,131.842a7.344,7.344,0,0,1-2.066.55,3.511,3.511,0,0,0,1.581-1.932,7.324,7.324,0,0,1-2.284.847,3.639,3.639,0,0,0-2.625-1.1,3.546,3.546,0,0,0-3.6,3.493,3.385,3.385,0,0,0,.093.8,10.309,10.309,0,0,1-7.412-3.651,3.413,3.413,0,0,0-.487,1.758,3.467,3.467,0,0,0,1.6,2.908,3.672,3.672,0,0,1-1.63-.436v.043a3.52,3.52,0,0,0,2.885,3.425,3.608,3.608,0,0,1-.948.123,3.662,3.662,0,0,1-.676-.062,3.583,3.583,0,0,0,3.358,2.425,7.347,7.347,0,0,1-4.466,1.5,7.581,7.581,0,0,1-.858-.048,10.413,10.413,0,0,0,5.513,1.568A10.009,10.009,0,0,0,148.53,134.1c0-.152,0-.3-.009-.453a7.184,7.184,0,0,0,1.794-1.808" fill="#fff"/>
  </g>
</svg>
